<svg width="366" height="757" viewBox="0 0 366 757" fill="none" xmlns="http://www.w3.org/2000/svg">
<path d="M605.193 378.246L529.668 453.771L454.153 378.256L529.678 302.73L605.193 378.246ZM454.141 529.297L378.614 604.825L303.099 529.31L378.626 453.782L454.141 529.297ZM454.155 227.207L378.63 302.733L303.102 227.205L378.627 151.68L454.155 227.207ZM303.103 378.259L227.576 453.787L152.048 378.259L227.576 302.732L303.103 378.259ZM756.24 378.24L680.714 453.766L605.193 378.246L680.719 302.719L756.24 378.24ZM605.188 529.292L529.663 604.817L454.142 529.296L529.668 453.771L605.188 529.292ZM605.204 227.204L529.678 302.73L454.155 227.207L529.681 151.681L605.204 227.204ZM453.075 681.405L377.55 756.93L302.029 681.409L377.554 605.884L453.075 681.405ZM302.039 530.369L226.514 605.894L150.991 530.371L226.516 454.846L302.039 530.369ZM454.153 378.256L378.627 453.781L303.104 378.258L378.63 302.733L454.153 378.256ZM454.154 76.1536L378.627 151.68L303.101 76.1536L378.627 0.627267L454.154 76.1536ZM150.989 379.318L75.4635 454.844L-0.0628779 379.317L75.4624 303.792L150.989 379.318ZM303.102 227.205L227.577 302.73L152.05 227.204L227.576 151.679L303.102 227.205Z" fill="black"/>
</svg>
